<?xml version="1.0" encoding="utf-8"?>
<!-- Generated by IcoMoon.io -->
<!DOCTYPE svg PUBLIC "-//W3C//DTD SVG 1.1//EN" "http://www.w3.org/Graphics/SVG/1.1/DTD/svg11.dtd">
<svg version="1.1" xmlns="http://www.w3.org/2000/svg" xmlns:xlink="http://www.w3.org/1999/xlink" width="32" height="32" viewBox="0 0 32 32">
<path d="M20.536 10.502c-1.319 1.137-3.138 2.767-4.486 4.216-1.276-1.342-3.014-2.887-4.59-4.22-0.286-0.241-0.711-0.205-0.951 0.079s-0.205 0.71 0.079 0.951c1.636 1.384 3.387 2.993 4.572 4.21-0.579 0.722-0.947 1.339-0.947 1.745 0 0.924 0.779 1.596 1.851 1.596 1.078 0 1.86-0.671 1.86-1.596 0-0.407-0.371-1.023-0.972-1.755 1.158-1.226 2.867-2.827 4.466-4.204 0.282-0.243 0.314-0.669 0.070-0.952s-0.669-0.314-0.952-0.070zM16.063 17.73c-0.164 0-0.501-0.060-0.504-0.207 0.037-0.164 0.218-0.44 0.507-0.797 0.289 0.344 0.47 0.607 0.508 0.758 0 0.184-0.351 0.246-0.511 0.246zM16 2.378c-5.823 0-10.56 4.737-10.56 10.56 0 3.469 4.048 9.922 4.22 10.195 0.148 0.235 0.406 0.388 0.684 0.388h11.31c0.278 0 0.536-0.154 0.684-0.388 0.173-0.273 4.221-6.721 4.221-10.189 0-5.822-4.737-10.565-10.56-10.565zM21.204 21.92h-10.409c-1.227-2.080-3.736-6.628-3.736-8.962 0-4.93 4.011-8.951 8.94-8.951s8.941 4.026 8.941 8.956c-0 2.331-2.509 6.877-3.736 8.957zM19.399 27.84h-6.798c-0.447 0-0.81 0.353-0.81 0.8s0.363 0.8 0.81 0.8h6.798c0.447 0 0.81-0.352 0.81-0.8s-0.362-0.8-0.81-0.8zM20.459 24.96h-8.917c-0.447 0-0.81 0.353-0.81 0.8s0.363 0.8 0.81 0.8h8.917c0.447 0 0.81-0.352 0.81-0.8s-0.363-0.8-0.81-0.8z"></path>
</svg>
