<?xml version="1.0" encoding="utf-8"?>
<!-- Generated by IcoMoon.io -->
<!DOCTYPE svg PUBLIC "-//W3C//DTD SVG 1.1//EN" "http://www.w3.org/Graphics/SVG/1.1/DTD/svg11.dtd">
<svg version="1.1" xmlns="http://www.w3.org/2000/svg" xmlns:xlink="http://www.w3.org/1999/xlink" width="32" height="32" viewBox="0 0 32 32">
<path d="M10.766 13.492c0.013-0.002 0.026-0.003 0.040-0.003h14.921l-5.36-5.359c-0.488-0.488-0.488-1.28 0-1.768s1.28-0.488 1.768 0l7.492 7.492c0.030 0.030 0.058 0.061 0.085 0.094 0.010 0.013 0.059 0.078 0.073 0.098 0.011 0.017 0.053 0.087 0.063 0.105s0.044 0.092 0.052 0.111c0.001 0.003 0.015 0.040 0.020 0.055 0.007 0.020 0.015 0.040 0.021 0.060 0.006 0.019 0.026 0.098 0.030 0.118 0.005 0.023 0.016 0.104 0.018 0.121 0.008 0.083 0.008 0.166 0 0.248-0.001 0.014-0.013 0.095-0.018 0.121-0.003 0.017-0.023 0.097-0.030 0.119-0.005 0.016-0.032 0.094-0.041 0.116-0.006 0.014-0.041 0.088-0.053 0.111-0.006 0.012-0.014 0.023-0.021 0.035-0.014 0.024-0.058 0.090-0.065 0.101-0.016 0.023-0.133 0.159-0.134 0.159l-7.491 7.491c-0.488 0.488-1.28 0.488-1.768 0s-0.488-1.28 0-1.768l5.36-5.36h-14.728c-3.579 0.003-6.49 2.91-6.5 6.487 0 0.003 0 0.005 0 0.008v2.996c0 0.69-0.56 1.25-1.25 1.25s-1.25-0.56-1.25-1.25l-0-2.987h-0.001c-0-4.894 3.904-8.875 8.767-9.002z"></path>
</svg>
